# xmcd
#
# Track frame offsets:
#	150
#	19875
#	42235
#	75385
#	86360
#	109885
#	131837
#	146762
#	178970
#	207800
#	227455
#	257692
#
# Disc length: 4073 seconds
#
# Revision: 0
# Processed by: cddbd v1.5.2PL0 Copyright (c) Steve Scherf et al.
# Submitted via: EZCDAudioConverter 4.0.1.1
#
DISCID=9e0fe70c
DTITLE=Zeno and The Skydogs - Alive On Beale
DYEAR=1996
DGENRE=Blues
TTITLE0=Take Me To The River
TTITLE1=Everything I Need
TTITLE2=Red House
TTITLE3=Walking By Myself
TTITLE4=Born On A Bayou
TTITLE5=Mother Earth
TTITLE6=Midnight Blues
TTITLE7=Another Love In Vain
TTITLE8=Whipping Post
TTITLE9=Love Denied
TTITLE10=Proud Mary
TTITLE11=Louisiana Mojo
EXTD=
EXTT0=
EXTT1=
EXTT2=
EXTT3=
EXTT4=
EXTT5=
EXTT6=
EXTT7=
EXTT8=
EXTT9=
EXTT10=
EXTT11=
PLAYORDER=
